<?xml version="1.0" encoding="UTF-8" standalone="no"?>
<!-- Created with Inkscape (http://www.inkscape.org/) -->

<svg
   xmlns:osb="http://www.openswatchbook.org/uri/2009/osb"
   xmlns:dc="http://purl.org/dc/elements/1.1/"
   xmlns:cc="http://creativecommons.org/ns#"
   xmlns:rdf="http://www.w3.org/1999/02/22-rdf-syntax-ns#"
   xmlns:svg="http://www.w3.org/2000/svg"
   xmlns="http://www.w3.org/2000/svg"
   xmlns:sodipodi="http://sodipodi.sourceforge.net/DTD/sodipodi-0.dtd"
   xmlns:inkscape="http://www.inkscape.org/namespaces/inkscape"
   width="209.38632mm"
   height="89.837219mm"
   viewBox="0 0 209.38632 89.837219"
   version="1.1"
   id="svg4679"
   inkscape:version="0.92.4 (5da689c313, 2019-01-14)"
   sodipodi:docname="bg2.svg">
  <defs
     id="defs4673">
    <linearGradient
       id="linearGradient7269"
       osb:paint="solid">
      <stop
         style="stop-color:#000000;stop-opacity:1;"
         offset="0"
         id="stop7267" />
    </linearGradient>
  </defs>
  <sodipodi:namedview
     id="base"
     pagecolor="#ffffff"
     bordercolor="#666666"
     borderopacity="1.0"
     inkscape:pageopacity="0.0"
     inkscape:pageshadow="2"
     inkscape:zoom="0.7"
     inkscape:cx="482.71091"
     inkscape:cy="252.01307"
     inkscape:document-units="mm"
     inkscape:current-layer="layer1"
     showgrid="false"
     showguides="false"
     inkscape:window-width="1366"
     inkscape:window-height="706"
     inkscape:window-x="-8"
     inkscape:window-y="-8"
     inkscape:window-maximized="1" />
  <metadata
     id="metadata4676">
    <rdf:RDF>
      <cc:Work
         rdf:about="">
        <dc:format>image/svg+xml</dc:format>
        <dc:type
           rdf:resource="http://purl.org/dc/dcmitype/StillImage" />
        <dc:title></dc:title>
      </cc:Work>
    </rdf:RDF>
  </metadata>
  <g
     inkscape:label="Layer 1"
     inkscape:groupmode="layer"
     id="layer1"
     transform="translate(-0.69821918,-156.77159)">
    <path
       style="fill:none;stroke:#000000;stroke-width:0.16066082px;stroke-linecap:butt;stroke-linejoin:miter;stroke-opacity:1"
       d="m 42.167649,161.88896 c 9.731576,-2.13068 13.750691,-2.31414 21.23839,-3.30519 9.757471,-0.89936 17.914268,-1.05676 27.060076,-1.48395 13.701295,-0.37908 27.114705,0.50273 40.536215,1.34905 12.00274,1.24109 24.00549,2.98628 36.00823,5.12642 8.58946,1.35076 17.6989,4.34008 27.4374,8.56653 3.12873,2.18589 5.72943,4.53698 7.70836,7.08256 l 2.37181,3.50755 2.58741,5.66606 c 0.785,2.5042 1.64293,5.19098 2.15618,7.01512 0.39981,3.79239 0.67644,7.10942 0.64686,10.18539 -0.21147,3.45714 -0.43838,7.13693 -1.50933,10.59011 -0.94582,3.8076 -2.43693,7.34228 -4.09674,10.79247 -1.44894,2.60243 -3.22295,5.04218 -5.39047,7.28493 -2.29573,2.45459 -4.67603,4.37999 -7.1154,5.93587 -2.6219,1.19618 -4.77224,2.51854 -7.92395,3.4401 -3.27343,1.22096 -5.77377,1.41891 -8.67863,1.95614 -4.43256,0.68115 -7.4835,0.62138 -10.99653,0.80942 -5.02579,-0.19317 -10.10327,-0.32438 -14.98545,-0.87687 l -14.55424,-1.55143 -14.87765,-1.34905 -10.99653,-0.53963 -16.386975,-0.0675 -17.03384,1.28159 -18.273637,1.75379 c -4.614762,0.35719 -9.023072,0.54216 -13.206614,0.53963 -4.575731,-0.0604 -9.168833,-0.34708 -13.31442,-1.48397 -3.428533,-0.80377 -6.484042,-1.95814 -9.487198,-3.50756 C 18.482332,239.15737 17.121077,237.968 14.2451,235.68248 10.835623,232.5191 8.5593036,228.67287 6.428941,224.62023 4.4730984,221.21682 3.7755761,217.0044 2.6017187,212.95088 1.9555835,209.18407 1.9407226,204.82482 1.8470549,200.53953 c 0.2920848,-4.90159 1.3939126,-9.53337 3.2342726,-14.30005 1.4774007,-3.21766 3.1309813,-5.55349 4.7435992,-8.09434 2.8549323,-3.26042 5.3355633,-5.65905 7.4927313,-7.15001 2.389184,-1.49791 5.837631,-3.38479 10.45748,-5.12644 4.399042,-1.76287 11.155678,-3.37066 14.392511,-3.97973 z"
       id="path3723"
       inkscape:connector-curvature="0"
       sodipodi:nodetypes="ccccccccccccccccccccccccccccccccccccc"
       clip-path="none" />
    <path
       sodipodi:nodetypes="ssssssssssss"
       inkscape:connector-curvature="0"
       id="path7295"
       d="m 136.96638,244.91318 c -23.62403,-2.62812 -46.889466,-2.82915 -70.463536,-0.49965 -19.604879,1.93728 -28.247454,1.48821 -35.474442,-0.0301 C 16.30082,241.2895 6.5770165,231.34914 2.1107307,215.99104 0.28033477,209.69689 0.21836809,197.60491 1.9861655,191.68377 5.25599,180.73169 11.868525,172.9658 22.064576,168.10331 44.840297,157.24156 101.00603,153.3096 149.17279,160.1987 c 9.59692,1.37261 17.62867,2.64932 24.35224,4.21804 18.22574,4.25237 26.1104,9.38014 31.11385,17.84546 4.09586,6.92975 5.44566,14.89925 5.44566,22.94525 0,20.68401 -10.98305,35.15516 -28.93333,39.89192 -7.97589,2.10469 -24.74213,1.97677 -44.18483,-0.18619 z"
       style="opacity:1;fill:#1a84c2;fill-opacity:1;fill-rule:nonzero;stroke:#000000;stroke-width:0;stroke-linejoin:miter;stroke-miterlimit:0;stroke-dasharray:none;stroke-opacity:0.21608043"
       clip-path="none" />
    <path
       style="opacity:0.01000001;fill:#1a84c2;fill-opacity:1;stroke:none;stroke-width:2.85714293"
       d="M 522,922.27937 C 422.78949,911.65069 368.64577,910.62514 289.14286,917.86877 185.61687,927.3012 154.69547,928.16231 126.27887,922.4044 92.957909,915.65269 73.765297,905.87649 53.428571,885.29631 6.9637903,838.27535 -4.7940051,753.83515 26.855101,694.45535 49.72968,651.53824 90.143491,627.86169 166.80706,612.46406 c 95.71077,-19.22319 248.287,-22.21425 366.62151,-7.18713 120.51666,15.30422 187.9938,34.16139 216.00834,60.36573 14.41263,13.48133 30.72043,42.08372 37.15289,65.16274 5.6526,20.28098 4.89551,67.29278 -1.42394,88.42206 -8.21617,27.47094 -21.22655,50.09577 -39.06617,67.9354 C 706.0188,927.24374 650.11209,936.00434 522,922.27937 Z"
       id="path5242"
       inkscape:connector-curvature="0"
       transform="scale(0.26458333)"
       clip-path="none" />
    <path
       sodipodi:nodetypes="ssssssssssss"
       inkscape:connector-curvature="0"
       id="path7291"
       d="m 136.96638,244.91318 c -23.62403,-2.62812 -46.889467,-2.82915 -70.463537,-0.49965 -19.604879,1.93728 -28.247454,1.48821 -35.474442,-0.0301 C 16.30082,241.2895 6.5770164,231.34914 2.1107307,215.99104 0.28033477,209.69689 0.21836809,197.60491 1.9861655,191.68377 5.2559899,180.73169 11.868525,172.9658 22.064576,168.10331 44.840297,157.24156 101.00603,153.3096 149.17279,160.1987 c 9.59692,1.37261 17.62867,2.64932 24.35224,4.21804 18.22574,4.25237 26.1104,9.38014 31.11385,17.84546 4.09586,6.92975 5.44566,14.89925 5.44566,22.94525 0,20.68401 -10.98305,35.15516 -28.93333,39.89192 -7.97589,2.10469 -24.74213,1.97677 -44.18483,-0.18619 z"
       style="opacity:1;fill:#1a84c2;fill-opacity:1;fill-rule:nonzero;stroke:#000000;stroke-width:0;stroke-linejoin:miter;stroke-miterlimit:0;stroke-dasharray:none;stroke-opacity:0.21608043"
       clip-path="none" />
  </g>
</svg>
